<svg width="629" height="586" viewBox="0 0 629 586" fill="none" xmlns="http://www.w3.org/2000/svg">
<path d="M499.088 91.0694C524.421 118.069 568.988 194.869 544.588 286.069C520.188 377.269 422.754 415.736 377.088 423.569C378.088 426.069 387.988 429.569 419.588 423.569C451.188 417.569 464.421 411.069 467.088 408.569C490.254 396.903 541.188 358.969 559.588 300.569C577.988 242.169 570.921 196.903 565.088 181.569C557.421 155.903 533.488 101.869 499.088 91.0694Z" fill="#036977" fill-opacity="0.8"/>
<path fill-rule="evenodd" clip-rule="evenodd" d="M1.08777 297.069C3.4211 387.069 69.1878 570.669 313.588 585.069C408.421 584.903 603.988 527.069 627.588 297.069C632.088 233.736 609.588 89.5694 475.088 30.0694C484.088 38.0694 507.488 58.7694 529.088 77.5694C550.688 96.3694 571.421 133.403 579.088 149.569C587.754 165.736 602.988 213.269 594.588 274.069C586.188 334.869 557.754 380.069 544.588 395.069C509.088 451.569 454.088 465.569 434.088 473.569C418.088 479.969 374.754 482.569 355.088 483.069C287.888 484.269 223.421 443.903 199.588 423.569C177.188 409.969 151.588 377.569 141.588 363.069C129.921 345.069 106.388 297.669 105.588 252.069C104.788 206.469 120.254 169.069 128.088 156.069C130.254 150.236 140.688 132.269 165.088 107.069C189.488 81.8694 227.254 65.9027 243.088 61.0694C292.588 49.5694 312.088 55.0694 332.088 59.5694C348.088 63.1694 384.421 88.0694 400.588 100.069C395.788 108.069 398.254 115.403 400.088 118.069C394.888 127.669 366.254 132.403 352.588 133.569C333.921 132.736 289.488 134.869 261.088 150.069C232.688 165.269 214.921 186.403 209.588 195.069C201.088 209.569 187.588 248.069 201.588 286.069C215.588 324.069 247.754 349.569 262.088 357.569C273.254 366.736 306.688 384.969 351.088 384.569C395.488 384.169 436.588 364.736 451.588 355.069C473.088 339.569 478.088 333.069 490.588 319.569C500.588 308.769 510.421 288.069 514.088 279.069C516.921 268.903 522.888 245.869 524.088 235.069C525.288 224.269 524.588 207.236 524.088 200.069C523.688 184.869 516.921 167.403 513.588 160.569C509.188 159.369 502.088 158.403 499.088 158.069C513.488 204.869 505.088 247.236 499.088 262.569C471.488 349.769 388.254 368.236 350.088 366.569C276.888 368.169 232.588 313.569 219.588 286.069C218.254 282.736 215.188 271.069 213.588 251.069C211.988 231.069 221.588 211.736 226.588 204.569C248.188 172.569 282.254 159.903 296.588 157.569C300.754 156.569 313.688 154.369 332.088 153.569C350.488 152.769 369.754 148.903 377.088 147.069C392.5 142.5 406.921 132.736 414.088 127.069C418.5 123.581 425.588 114.569 425.588 113.069C425.588 111.569 427.588 105.069 425.588 101.069C423.588 97.0694 410.088 89.0694 406.588 87.5694C403.788 86.3694 395.754 79.0694 392.088 75.5694L350.588 38.5694C307.788 6.5694 255.088 0.236062 234.088 1.0694C42.0878 28.2694 -1.24556 209.736 1.08777 297.069ZM212.588 63.0694H194.588C194.588 50.2694 202.588 39.7361 206.588 36.0694C209.921 32.4027 220.388 24.9694 235.588 24.5694C250.788 24.1694 255.254 32.7361 255.588 36.0694C219.088 38.0694 211.754 55.7361 212.588 63.0694Z" fill="#036977" fill-opacity="0.8"/>
<path d="M327.588 81.5694C319.027 81.5694 311.499 88.5293 312.088 97.0694C312.64 105.078 319.561 110.569 327.588 110.569C335.615 110.569 342.535 105.078 343.088 97.0694C343.677 88.5293 336.148 81.5694 327.588 81.5694Z" fill="#036977" fill-opacity="0.8"/>
<path d="M499.088 91.0694C524.421 118.069 568.988 194.869 544.588 286.069C520.188 377.269 422.754 415.736 377.088 423.569C378.088 426.069 387.988 429.569 419.588 423.569C451.188 417.569 464.421 411.069 467.088 408.569C490.254 396.903 541.188 358.969 559.588 300.569C577.988 242.169 570.921 196.903 565.088 181.569C557.421 155.903 533.488 101.869 499.088 91.0694Z" stroke="black"/>
<path fill-rule="evenodd" clip-rule="evenodd" d="M1.08777 297.069C3.4211 387.069 69.1878 570.669 313.588 585.069C408.421 584.903 603.988 527.069 627.588 297.069C632.088 233.736 609.588 89.5694 475.088 30.0694C484.088 38.0694 507.488 58.7694 529.088 77.5694C550.688 96.3694 571.421 133.403 579.088 149.569C587.754 165.736 602.988 213.269 594.588 274.069C586.188 334.869 557.754 380.069 544.588 395.069C509.088 451.569 454.088 465.569 434.088 473.569C418.088 479.969 374.754 482.569 355.088 483.069C287.888 484.269 223.421 443.903 199.588 423.569C177.188 409.969 151.588 377.569 141.588 363.069C129.921 345.069 106.388 297.669 105.588 252.069C104.788 206.469 120.254 169.069 128.088 156.069C130.254 150.236 140.688 132.269 165.088 107.069C189.488 81.8694 227.254 65.9027 243.088 61.0694C292.588 49.5694 312.088 55.0694 332.088 59.5694C348.088 63.1694 384.421 88.0694 400.588 100.069C395.788 108.069 398.254 115.403 400.088 118.069C394.888 127.669 366.254 132.403 352.588 133.569C333.921 132.736 289.488 134.869 261.088 150.069C232.688 165.269 214.921 186.403 209.588 195.069C201.088 209.569 187.588 248.069 201.588 286.069C215.588 324.069 247.754 349.569 262.088 357.569C273.254 366.736 306.688 384.969 351.088 384.569C395.488 384.169 436.588 364.736 451.588 355.069C473.088 339.569 478.088 333.069 490.588 319.569C500.588 308.769 510.421 288.069 514.088 279.069C516.921 268.903 522.888 245.869 524.088 235.069C525.288 224.269 524.588 207.236 524.088 200.069C523.688 184.869 516.921 167.403 513.588 160.569C509.188 159.369 502.088 158.403 499.088 158.069C513.488 204.869 505.088 247.236 499.088 262.569C471.488 349.769 388.254 368.236 350.088 366.569C276.888 368.169 232.588 313.569 219.588 286.069C218.254 282.736 215.188 271.069 213.588 251.069C211.988 231.069 221.588 211.736 226.588 204.569C248.188 172.569 282.254 159.903 296.588 157.569C300.754 156.569 313.688 154.369 332.088 153.569C350.488 152.769 369.754 148.903 377.088 147.069C392.5 142.5 406.921 132.736 414.088 127.069C418.5 123.581 425.588 114.569 425.588 113.069C425.588 111.569 427.588 105.069 425.588 101.069C423.588 97.0694 410.088 89.0694 406.588 87.5694C403.788 86.3694 395.754 79.0694 392.088 75.5694L350.588 38.5694C307.788 6.5694 255.088 0.236062 234.088 1.0694C42.0878 28.2694 -1.24556 209.736 1.08777 297.069ZM212.588 63.0694H194.588C194.588 50.2694 202.588 39.7361 206.588 36.0694C209.921 32.4027 220.388 24.9694 235.588 24.5694C250.788 24.1694 255.254 32.7361 255.588 36.0694C219.088 38.0694 211.754 55.7361 212.588 63.0694Z" stroke="black"/>
<path d="M327.588 81.5694C319.027 81.5694 311.499 88.5293 312.088 97.0694C312.64 105.078 319.561 110.569 327.588 110.569C335.615 110.569 342.535 105.078 343.088 97.0694C343.677 88.5293 336.148 81.5694 327.588 81.5694Z" stroke="black"/>
</svg>
